<svg xmlns="http://www.w3.org/2000/svg" width="13.488" height="12"><path d="M6.744 12a.791.791 0 01-.521-.2c-.545-.476-1.07-.924-1.534-1.319A28.523 28.523 0 011.338 7.34 5.02 5.02 0 010 4.054a4.216 4.216 0 011.07-2.88A3.627 3.627 0 013.768 0a3.393 3.393 0 012.119.732 4.336 4.336 0 01.857.895A4.336 4.336 0 017.6.732 3.393 3.393 0 019.72 0a3.627 3.627 0 012.7 1.174 4.216 4.216 0 011.07 2.879 5.02 5.02 0 01-1.34 3.287 28.52 28.52 0 01-3.35 3.143c-.464.4-.99.844-1.537 1.322a.792.792 0 01-.521.2zM3.768.79a2.846 2.846 0 00-2.117.92A3.429 3.429 0 00.79 4.054a4.224 4.224 0 001.156 2.782A28.069 28.069 0 005.2 9.882c.465.4.993.846 1.542 1.326.552-.481 1.08-.931 1.547-1.328a28.076 28.076 0 003.253-3.046 4.224 4.224 0 001.158-2.78 3.429 3.429 0 00-.861-2.344A2.845 2.845 0 009.72.79a2.62 2.62 0 00-1.636.566 3.834 3.834 0 00-.912 1.055.5.5 0 01-.857 0A3.83 3.83 0 005.4 1.357 2.62 2.62 0 003.768.79zm0 0"/></svg>