<svg height="512pt" viewBox="0 0 512 512" width="512pt" xmlns="http://www.w3.org/2000/svg"><path fill="#fff" d="M452 60H205.27l-30-60H0v452c0 33.086 26.914 60 60 60h392c33.086 0 60-26.914 60-60V120h-60zM90 452c0 16.543-13.457 30-30 30s-30-13.457-30-30V30h126.73l30 60H422v30H90zm392-302v302c0 16.543-13.457 30-30 30H111.95a59.646 59.646 0 008.05-30V150zm0 0"/><path fill="#fff" d="M226 362c10.871 0 20.855-3.879 28.645-10.32l77.253 46.351A45.263 45.263 0 00331 407c0 24.813 20.188 45 45 45s45-20.188 45-45-20.188-45-45-45c-10.871 0-20.855 3.879-28.645 10.32l-77.253-46.351a45.263 45.263 0 000-17.938l77.253-46.351C355.145 268.12 365.13 272 376 272c24.813 0 45-20.188 45-45s-20.188-45-45-45-45 20.188-45 45c0 3.07.313 6.066.898 8.969l-77.253 46.351C246.855 275.88 236.87 272 226 272c-24.813 0-45 20.188-45 45s20.188 45 45 45zm150 30c8.27 0 15 6.73 15 15s-6.73 15-15 15-15-6.73-15-15 6.73-15 15-15zm0-180c8.27 0 15 6.73 15 15s-6.73 15-15 15-15-6.73-15-15 6.73-15 15-15zm-150 90c8.27 0 15 6.73 15 15s-6.73 15-15 15-15-6.73-15-15 6.73-15 15-15zm0 0"/></svg>