<svg xmlns="http://www.w3.org/2000/svg" width="34.712" height="23.576"><path d="M1.518 18.373s6.693 0 10.688-2.453l.133-.088c1.31-.792 2.486-3.95 3.962-6.414l.047-.078c4.074-6.8 10.688-5.518 12.777-4.926.02 0 .188.064.188.064" fill="none" stroke="#000" stroke-linecap="round" stroke-width="3"/><path d="M1.5 4.421s6.71-1.854 10.706.869c1.443.978 2.619 4.489 4.1 7.229l.047.086c4.074 7.562 10.492 6.847 12.581 6.189" fill="none" stroke="#000" stroke-linecap="round" stroke-width="3"/><path d="M29.574 7.545V2.183c0-.297.223-.423.292-.454a.493.493 0 01.534.076l3.108 2.68a.495.495 0 01.173.38.493.493 0 01-.173.378L30.4 7.923a.493.493 0 01-.534.077.493.493 0 01-.292-.455z"/><path d="M33.181 4.864l-3.107-2.68v5.361l3.107-2.68m1 0a.996.996 0 01-.347.756l-3.107 2.681a1 1 0 01-1.653-.757V2.183a1 1 0 011.653-.757l3.107 2.681c.232.2.347.478.347.757zm-4.607 16.527V16.03c0-.297.223-.423.292-.454a.493.493 0 01.534.076l3.108 2.68a.495.495 0 01.173.38.493.493 0 01-.173.378L30.4 21.77a.493.493 0 01-.534.077.493.493 0 01-.292-.455z"/><path d="M33.181 18.711l-3.107-2.68v5.361l3.107-2.68m1 0a.996.996 0 01-.347.756l-3.107 2.681a1 1 0 01-1.653-.757V16.03a1 1 0 011.653-.757l3.107 2.681c.232.2.347.478.347.757z"/></svg>