<svg version="1.1" id="圖層_1" xmlns="http://www.w3.org/2000/svg" x="0" y="0" viewBox="0 0 33 36" xml:space="preserve"><style>.st2{fill:none;stroke:#000;stroke-width:3}</style><path class="st2" d="M6.4 1.6h1c2.5 0 4.5 2 4.5 4.5v24c0 2.5-2 4.5-4.5 4.5h-1c-2.5 0-4.5-2-4.5-4.5v-24c0-2.5 2-4.5 4.5-4.5z" id="Rectangle_19_2_"/><path class="st2" d="M6.4 1.6h1c2.5 0 4.5 2 4.5 4.5v24c0 2.5-2 4.5-4.5 4.5h-1c-2.5 0-4.5-2-4.5-4.5v-24c0-2.5 2-4.5 4.5-4.5z" transform="translate(19.015)" id="Rectangle_20_2_"/></svg>