<svg version="1.1" id="圖層_1" xmlns="http://www.w3.org/2000/svg" x="0" y="0" viewBox="0 0 22 19" xml:space="preserve"><style/><path d="M926.9 675.6c-.6 0-1-.4-1-1v-7c0-.6.4-1 1-1s1 .4 1 1v7c0 .5-.4 1-1 1zm4 3c-.6 0-1-.4-1-1v-13c0-.6.4-1 1-1s1 .4 1 1v13c0 .5-.4 1-1 1zm-7.9.3c-.3 0-.6-.1-.9-.2l-8-4.5-1.7 1c-.4.2-1 .3-1.4 0-.4-.2-.7-.7-.7-1.2l-.1-5.9c0-.5.3-1 .7-1.2.4-.3 1-.3 1.4 0l1.9 1.1 7.6-4.5c.6-.3 1.2-.3 1.8 0 .6.3.9.9.9 1.5l.2 12.2c0 .6-.3 1.2-.9 1.6-.2.1-.5.1-.8.1zm-8.9-7l8.7 4.9-.1-11.4-8.3 4.9-2-1.1v3.8l1.7-1.1z" transform="translate(-909.766 -661.784)" id="Group_5"/></svg>